<svg width="22" height="22" viewBox="0 0 22 22" fill="none" xmlns="http://www.w3.org/2000/svg">
<path d="M12.8334 8.84579V7.74579C13.3375 7.5319 13.8531 7.37149 14.3802 7.26454C14.9073 7.1576 15.4611 7.10413 16.0417 7.10413C16.4389 7.10413 16.8285 7.13468 17.2104 7.19579C17.5924 7.2569 17.9667 7.33329 18.3334 7.42496V8.43329C17.9667 8.29579 17.5962 8.19267 17.2219 8.12392C16.8476 8.05517 16.4542 8.02079 16.0417 8.02079C15.4611 8.02079 14.9035 8.09336 14.3688 8.2385C13.834 8.38364 13.3222 8.58607 12.8334 8.84579ZM12.8334 13.8875V12.7645C13.3375 12.5507 13.8531 12.3941 14.3802 12.2948C14.9073 12.1954 15.4611 12.1458 16.0417 12.1458C16.4389 12.1458 16.8285 12.1763 17.2104 12.2375C17.5924 12.2986 17.9667 12.375 18.3334 12.4666V13.475C17.9667 13.3375 17.5962 13.2343 17.2219 13.1656C16.8476 13.0968 16.4542 13.0625 16.0417 13.0625C15.4611 13.0625 14.9035 13.1312 14.3688 13.2687C13.834 13.4062 13.3222 13.6125 12.8334 13.8875ZM12.8334 11.3666V10.2666C13.3375 10.0527 13.8531 9.89232 14.3802 9.78538C14.9073 9.67843 15.4611 9.62496 16.0417 9.62496C16.4389 9.62496 16.8285 9.65551 17.2104 9.71663C17.5924 9.77774 17.9667 9.85413 18.3334 9.94579V10.9541C17.9667 10.8166 17.5962 10.7135 17.2219 10.6448C16.8476 10.576 16.4542 10.5416 16.0417 10.5416C15.4611 10.5416 14.9035 10.6142 14.3688 10.7593C13.834 10.9045 13.3222 11.1069 12.8334 11.3666ZM5.68335 15.125C6.50835 15.125 7.30662 15.2204 8.07815 15.4114C8.84967 15.6024 9.60974 15.8888 10.3584 16.2708V6.48538C9.67085 6.02704 8.92606 5.67183 8.12398 5.41975C7.3219 5.16767 6.50835 5.04163 5.68335 5.04163C5.1028 5.04163 4.5337 5.1142 3.97606 5.25933C3.41842 5.40447 2.85696 5.58399 2.29169 5.79788V15.7437C2.7653 15.5298 3.30384 15.3732 3.90731 15.2739C4.51078 15.1746 5.1028 15.125 5.68335 15.125ZM11.7334 16.2708C12.4972 15.8888 13.2459 15.6024 13.9792 15.4114C14.7125 15.2204 15.4917 15.125 16.3167 15.125C16.8972 15.125 17.4969 15.1708 18.1156 15.2625C18.7344 15.3541 19.2653 15.4763 19.7084 15.6291V5.79788C19.1889 5.53815 18.6389 5.34718 18.0584 5.22496C17.4778 5.10274 16.8972 5.04163 16.3167 5.04163C15.4917 5.04163 14.6934 5.16767 13.9219 5.41975C13.1504 5.67183 12.4209 6.02704 11.7334 6.48538V16.2708ZM11.0459 18.3333C10.2667 17.7527 9.41877 17.3059 8.5021 16.9927C7.58544 16.6795 6.64585 16.5229 5.68335 16.5229C5.11808 16.5229 4.56808 16.5916 4.03335 16.7291C3.49863 16.8666 2.96391 17.0347 2.42919 17.2333C2.0778 17.4013 1.73787 17.3784 1.4094 17.1645C1.08092 16.9507 0.916687 16.6451 0.916687 16.2479V5.63746C0.916687 5.40829 0.970159 5.19822 1.0771 5.00725C1.18405 4.81628 1.34446 4.66732 1.55835 4.56038C2.20002 4.25482 2.86842 4.02947 3.56356 3.88433C4.2587 3.7392 4.9653 3.66663 5.68335 3.66663C6.64585 3.66663 7.58162 3.79649 8.49064 4.05621C9.39967 4.31593 10.2514 4.71315 11.0459 5.24788C11.825 4.71315 12.6615 4.31593 13.5552 4.05621C14.449 3.79649 15.3695 3.66663 16.3167 3.66663C17.0347 3.66663 17.7375 3.7392 18.425 3.88433C19.1125 4.02947 19.7771 4.25482 20.4188 4.56038C20.6327 4.66732 20.7969 4.81628 20.9115 5.00725C21.0261 5.19822 21.0834 5.40829 21.0834 5.63746V16.2479C21.0834 16.6757 20.9115 17.0003 20.5677 17.2218C20.224 17.4434 19.884 17.4472 19.5479 17.2333C19.0285 17.0194 18.5014 16.8475 17.9667 16.7177C17.432 16.5878 16.882 16.5229 16.3167 16.5229C15.3542 16.5229 14.4299 16.6833 13.5438 17.0041C12.6577 17.325 11.825 17.768 11.0459 18.3333Z" fill="url(#paint0_linear_11_175)"/>
<defs>
<linearGradient id="paint0_linear_11_175" x1="11" y1="3.66663" x2="11" y2="18.3333" gradientUnits="userSpaceOnUse">
<stop stop-color="#2ADAF2"/>
<stop offset="1" stop-color="#1C9CE4"/>
</linearGradient>
</defs>
</svg>
