<svg width="18" height="18" viewBox="0 0 18 18" fill="none" xmlns="http://www.w3.org/2000/svg">
<rect width="18" height="18" fill="url(#paint0_linear_11_173)"/>
<path d="M8.90625 16.5L12.3 7.5H13.8375L17.325 16.5H15.6937L14.925 14.1375H11.325L10.4437 16.5H8.90625ZM11.7375 12.825H14.4L13.0875 9.1875H13.05L11.7375 12.825ZM3 14.25L1.96875 13.2188L5.79375 9.39375C5.31875 8.84375 4.89687 8.29063 4.52812 7.73438C4.15937 7.17812 3.8375 6.6 3.5625 6H5.19375C5.40625 6.4125 5.64062 6.80312 5.89687 7.17188C6.15312 7.54063 6.44375 7.91875 6.76875 8.30625C7.33125 7.71875 7.8 7.10938 8.175 6.47812C8.55 5.84687 8.86875 5.1875 9.13125 4.5H0.75V3H6V1.5H7.5V3H12.75V4.5H10.6312C10.3562 5.3625 9.99062 6.20937 9.53437 7.04062C9.07812 7.87187 8.51875 8.6625 7.85625 9.4125L9.69375 11.2687L9.13125 12.7875L6.75 10.5L3 14.25Z" fill="black"/>
<defs>
<linearGradient id="paint0_linear_11_173" x1="9" y1="0" x2="9" y2="18" gradientUnits="userSpaceOnUse">
<stop stop-color="#2ADAF2"/>
<stop offset="1" stop-color="#1C9CE4"/>
</linearGradient>
</defs>
</svg>
